<svg height="16" viewBox="0 0 126 16" width="126" xmlns="http://www.w3.org/2000/svg" xmlns:xlink="http://www.w3.org/1999/xlink"><linearGradient id="a" x1="99.685%" x2="39.844%" y1="15.814%" y2="97.439%"><stop offset="0" stop-color="#fff" stop-opacity=".4"/><stop offset=".923" stop-color="#fff"/></linearGradient><g fill="none" fill-rule="nonzero"><path d="m4.79424975 7.32117647c-.0928741-.1214036-.24251187-.18548979-.39457346-.16898617-.1520616.01650362-.28443013.11119666-.34903696.24969205l-3.76798729 7.52564705c-.06979221.1394515-.06233172.3050581.01971742.4376836.08204914.1326256.22698841.2133605.38306175.2133752h5.24672856c.17168696.0039818.32958489-.0935161.40277916-.2487058 1.1317859-2.3362353.4458836-5.88847064-1.54068918-8.00870593z" fill="url(#a)"/><path d="m108.030553 2.956h-3.881283l-4.4063101 12.6225882h3.3656791l.624661-2.1258823c1.538441.4512609 3.174311.4512609 4.712752 0l.624661 2.1258823h3.365915zm-1.941819 8.2204706c-.548134-.0000318-1.093445-.0783942-1.619361-.2327059l1.619361-5.50847058 1.61936 5.51035298c-.526008.1536749-1.071317.2314031-1.61936.2308235zm-37.000566-4.66611766c0 1.86352941.8653863 3.34305882 4.2503801 3.99623526 2.0195489.4235294 2.4425848.7491765 2.4425848 1.4216471 0 .6531765-.4239781 1.076-1.8464245 1.076-1.7192058-.0308782-3.4040402-.4862988-4.9042485-1.3256471v3.0352942c1.0194317.4995294 2.365562 1.0567058 4.8658549 1.0567058 3.5388036 0 4.9428776-1.5764706 4.9428776-3.9192941m0 0-9.7510244-5.34094116c0-2.32470588 1.6923791-3.74635294 4.9619566-3.74635294 1.4383094-.02619268 2.864286.26916791 4.173593.86447059v2.90117647c-1.3654449-.61482353-2.8079125-1.05670588-4.2696947-1.05670588-1.2116351 0-1.8655035.308-1.8655035 1.03741176 0 .57647059.4423505.97976471 2.2694604 1.38329412 3.3079711.71058823 4.4812126 1.74823529 4.4812126 3.95764704zm35.7130856-8.8952941h4.25038l3.05806 5.78282353 1.019432 2.36329407v-8.1461176h2.692496v12.6225882h-3.384994l-3.80803-7.07035291-1.134848-2.55505882v9.62541173h-2.692496zm-20.0680594 0h2.9426433v12.6225882h-2.9426433zm-3.3953577 8.8952941c0 2.3428235-1.404074 3.9192941-4.9428776 3.9192941-2.5002929 0-3.8464232-.5571764-4.8658549-1.0567058v-3.0352942c1.5002083.8393483 3.1850427 1.2947689 4.9042485 1.3256471 1.4224464 0 1.8464244-.4228235 1.8464244-1.076 0-.6724706-.4230358-.9981177-2.4425847-1.4216471-3.3849938-.65317644-4.2503801-2.13270585-4.2503801-3.99623526 0-2.32470588 1.6923791-3.74635294 4.9619566-3.74635294 1.4383094-.02619268 2.864286.26916791 4.173593.86447059v2.90117647c-1.3654449-.61482353-2.8079125-1.05670588-4.2696947-1.05670588-1.2116351 0-1.8655035.308-1.8655035 1.03741176 0 .57647059.4423505.97976471 2.2694604 1.38329412 3.3079711.71058823 4.4812126 1.74823529 4.4812126 3.95764704zm-44.8599414-8.8952941h2.9617223v9.8943529h4.0388622l-.9523019 2.7282353h-6.0482826zm-11.9495862 0h9.7317098v2.728h-3.50041v9.8945882h-2.9617223v-9.8945882h-3.2695775zm-4.2946623 0h-3.8815192l-4.4063098 12.6225882h3.3649726l.624661-2.1258823c1.5384413.4512609 3.1743104.4512609 4.7127517 0l.624661 2.1258823h3.3656792zm-1.9408774 8.2204706c-.5481337-.0000318-1.0934443-.0783942-1.6193606-.2327059l1.6193606-5.50847058 1.6193607 5.51035298c-.526009.1536749-1.0713177.2314031-1.6193607.2308235zm34.6604424-8.2204706h-3.8812836l-4.4063098 12.6225882h3.3656792l.624661-2.1258823c1.5384413.4512609 3.1743104.4512609 4.7127517 0l.6246611 2.1258823h3.3656792zm-1.9406418 8.2204706c-.5481337-.0000318-1.0934443-.0783942-1.6193607-.2327059l1.6193607-5.50847058 1.6193607 5.51035298c-.526009.1536749-1.0713177.2314031-1.6193607.2308235zm-53.20571409-10.70023531c.07047238-.14702374.21892668-.2408194.38210694-.2414209.16318026-.00060151.31232345.09209716.3838801.23859738.17736416.35270588 7.23471465 14.45411763 7.23471465 14.45411763.0697922.1394515.0623317.3050581-.0197175.4376836-.0820491.1326256-.2269884.2133605-.3830617.2133752h-5.2457864c-.17057489-.0000161-.32650221-.0962972-.40277916-.2487058l-2.52950025-5.0536471c-1.55035275-3.14025807-1.32990419-6.86415844.58014332-9.80000001z" fill="#fff"/></g></svg>