<svg height="50" viewBox="0 0 59 50" width="59" xmlns="http://www.w3.org/2000/svg"><g fill="#4049c4" fill-rule="evenodd" stroke="#4049c4" stroke-width=".8" transform="translate(1 1)"><path d="m44.1424051 20.3895301c.1798122-3.0461353.4299831-5.8560564.4247827-5.9832143-.0136435-.3356993-.6729958-.3609023-.978903.0902256-.6066751.9373233-1.3429937 3.6987669-2.0059557 6.3525413-.687924.2310978-1.3685675.4824662-2.0348945.7559699.0773333-.19603.1788333-.3115188.3087827-.3115188.8871308 0 1.1624473-2.2255639.1529536-2.2255639-1.0080253 0-1.7720591-.0597894-1.7742004 3.1145865-.0305908.0144361-.1023566.0883609-.1023566.0883609-.5251202.3800902-2.9511477 2.0700752-4.3639493 1.9098346-1.5907173-.1804511-1.0094937.4511278-.9177216.6015037.1499557.1768421 1.0352511 1.4514888 4.9315296-1.0197894 0 0 .2058755-.13197.2383017-.1531429 0 0 .093424.6238196.2617341 1.4353684-.1035189.0651429-3.0760801 7.6774136-5.4315654 7.6774136-4.2521097 0-.7341772-12.9624061-.7341772-12.9624061s.1835443-.9022556-.2753164-.9022556c-.4588608 0-.4588608.4511278-.4588608.4511278s-2.3333987 7.7186166-1.2789979 11.7604812c-.3014409.369203-.2423396.9548271-1.1682595.8410226-.9789029-.1203008-.5812236-7.4586466-.5812236-7.4586466s-.6118144-.6616542-.7647679-.3308271c-.1529536.3308271-.1835443 7.6992481-2.6613924 7.6390977-2.4778481-.0601503-.2447258-9.5939849 1.5907173-9.5939849 1.835443 0 2.1413502 2.7669173 2.4778481 2.9172932.3364978.150376.9177215-.2406015.9177215-.6015037 0-.3609023-.1223629-.2406015-.1223629-.2406015s-1.3154008-2.9473685-3.5179325-2.9473685c-.8818692 0-1.9401856 1.8273685-2.6253565 4.0186467-.2044684-.2616542-.5753502-.577564-1.0636393-.8467369.5167996-1.9253534 1.0394726-4.5218045 1.202154-6.5073083.1846456.037173.381038.057203.5902173.057203 2.1413503 0 3.7320676-1.6240601 3.7320676-3.7593985 0-2.1353383-3.3649789-2.4962406-4.3132912-2.8270676-.163905-.057203-.3525886-.1135038-.5525295-.1855639.787711-1.33479702 2.3125078-3.07933225 2.235019-3.18285717 0 0-.1552995-.24311195-.4852306-.0682552-.4199804.22258099-1.1274352.98966178-2.2067526 2.35396947-.1238312.1565714-.2392194.3248722-.3461033.5024361-.7207785-.4905865-1.3669768-1.43476691-1.3669768-3.54003007 0-3.48872181.9789029-5.11278196 2.5696202-5.11278196s.1529536 4.81203008.0305907 5.68421053c-.1223628.87218045.1223629.57142857.3364979.57142857.2141351 0 .4894515-.93233083 1.0706751-3.81954887.5812237-2.88721805-1.2848101-3.06766917-1.2848101-3.06766917-4.5886076-.15037594-4.3438818 7.54887218-2.7225738 9.50375937.2437468.2938948.5542426.5358196.9052405.7408121-.3365591.8902255-.4936118 1.8924511-.4442996 2.8280902-.0607532-.0128722-.1234029-.0200301-.1856245-.0200301-.7035865 0-2.9672995 2.1052632-3.0896624-8.60150375 0 0 0-1.11278196-1.0094937-1.11278196-.3226709 0-.5251202.63506767-.6731793 1.61966917-.0790464-.01618045-.1790781-.02568421-.3057236-.02568421-2.4271899 0-3.92846 4.50568425-3.9558692 7.97437595-1.1474578.0324812-2.2032659.2605714-3.17195151.6523308.25518776-4.7953684.33668143-8.24848118.33668143-8.35603005 0-.36090226-.37810126-.48481203-.52004219-.54135339-.23536498-.09383458-.61181435.09022557-.61181435.09022557s-.05096413 3.95939847-.27476582 9.32439097c-9.91616456 5.6228571-9.5307827 29.5327519-4.83388397 29.5327519 3.6368692 0 5.21724684-17.7612632 5.85353376-29.1277594 1.41567725-.9184963 2.59207385-1.2115489 3.04836495-1.2481805.0630169-.0050526.1210781-.0102857.1754072-.0156391.0368924 2.0259248.6025759 3.6246617 1.8129895 3.6246617 2.3554852 0 3.0590717-4.2706767 3.0590717-8.1804511 0 0 .2447257 5.293233 2.9367088 5.293233.7254895 0 1.1995232-.0655639 1.491787-.1613233.0205569.113985.0435.226767.0712763.3366015-1.4306666 1.4436091-2.1879093 4.9441203-2.5879747 8.3720301-.0254514.0079399-.0508417.0156391-.0763544.0241203-2.5390295.8421053-7.0664557 5.924812-7.0664557 12.3007519 0 6.3759398 1.4377637 11.5789474 4.2521097 11.5789474 3.642192 0 4.1219156-18.3643309 4.2702806-23.2280903.3974346-.0283308.7965211.0123309 1.1927321.1318497-.1038249.4526315-.1798123.7521804-.2014093.8105263-.214135.5714285-.7035865.7518797-.7035865 1.0526316 0 .3007518.5812236.6616541 1.0706751 0 .1599283-.3439399.3492236-.8885414.5465949-1.5589775.3602363.2008421.7157617.4735639 1.0632722.8258045-.8389198 3.1378045-.8420401 6.6880602 1.4797954 6.6880602 0 0 2.3248945-.2406015 2.3248945-2.1954887 0 0 .3670886 2.2857142 1.8048523 2.2857142.9131941 0 1.1967089-.5820751 1.2822405-1.0070376.4379979 1.0369925 1.196403 1.698767 2.4192363 1.698767 2.734443 0 4.8062299-4.7698045 5.8424599-7.0781955.3244451 1.1970526.7676435 2.3263158 1.2851772 2.3263158.798173 0 1.5096519-4.1048421 2.1186519-7.0899248.3448186-.1267369.7135591-.2546166 1.1075063-.3823158-.1255443 4.1483308-.6106519 11.6827669 1.3624494 11.6827669 1.193038 0 1.4024009-1.2227369 2.1107595-4.2406015.4076519-1.7365414.4588608-2.6766918 1.7436709-2.6766918.7953586 0 1.1624472 1.8045113 1.5295359 2.6766918.3364978.8120301 1.0706751 2.3458646 2.5696202 2.3458646 2.0189874 0 2.4778481-3.5789473 2.1413502-3.5789473s-.7647679 2.7368421-2.1413502 2.7368421c-1.1318565 0-1.621308-1.6541354-1.8966245-2.3458647-.2753164-.6917293-.7035865-2.887218-2.5696202-2.887218-2.814346 0-2.1719409 6.5864661-3.4873418 6.5864661-.7706413 0-.6020253-5.7693233-.3330105-10.6151579 2.9806371-.8648421 7.1720548-1.6698947 12.9057953-1.9863458 0 0 .8841249-.0358956.8390658-.187126 0-.4273274-7.1369603-.1115845-13.7448611 1.6289869zm-40.90327641 24.0017481c-2.29430379 0-1.86603375-7.8496241-1.86603375-7.8496241 0-11.6422857 3.57856329-17.1648721 6.64815822-19.7070676-.50645991 11.269594-1.76098523 27.5566917-4.78212447 27.5566917zm11.04324891-26.887218c-2.4778481 0-.3059071-10.31578952 1.7742616-10.31578952.139922 0 .3070697-.05654136.4490718-.13726316-.431941 3.59813538-.3957215 10.45305268-2.2233334 10.45305268zm4.3744726 14.9172932s-.3364979 14.3759398-2.6308017 14.3759398-3.2120253-7.0676691-2.6308017-12.4511278c.3808545-3.5272782 2.797154-7.8289925 5.5883735-9.1835188-.3689853 3.8207519-.3267701 7.2587068-.3267701 7.2587068zm4.1254641-20.2257444c1.9578671.7862857 4.4705275.9145865 4.4705275 2.1204812 0 .2406015-.2447258 2.7669173-2.5696203 2.7669173-.3275654 0-.6070422-.0753684-.844732-.2076992.0053839-1.1215038-.177365-1.8674888-.6542131-1.8674888-.1534431 0-.3015633.0183459-.4447891.053594-.2269831-1.0800601-.1235253-2.3007518.042827-2.8658045zm-.9450696 11.9366617c-.4037974-.1405113-.8519515-.2361504-1.327943-.2537143.0046498-.1065865.0091772-.187609.0135823-.2391579.0611814-.631579.6118143-6.3458647 1.7742616-6.3458647.8598439 0 .0628945 4.408782-.4599009 6.8387369zm18.080154 2.5146466c-.3388228 0-.6384894-2.2721203-.5610337-3.8558797.5124557-.2698947 1.1623249-.576782 1.9668607-.8976842-.6305358 2.553203-1.1638544 4.7535639-1.405827 4.7535639zm3.2167363-6.2828271c-.3072531.089203-.6142004.1821955-.9201688.2789775.2660781-1.2069173.5105591-2.0563008.7319135-2.0563008.168249 0 .2047131.694376.1882553 1.7773233z"/><path d="m54.8150781 10.3762406s-.3059072-2.58646616-.3059072-4.57142857.2447257-5.17293233-1.1012658-5.05263158c-2.4778481 0-3.7626583 8.78195489-5.0168777 8.84210526-1.2542194.06015038.6424051-6.85714285 1.1012658-7.93984962.4588608-1.08270677.0305908-1.7443609-.4894514-1.59398496s-2.4472574 12.03007517-4.9556962 12.03007517 1.1318565-11.60902254 1.1318565-11.60902254-.3670886-.2406015-.6424051-.2406015c-.2753164 0-.4894514.39097744-.4894514.39097744s-1.0389832 3.45293233-1.5109979 6.69990977c-.6080823.79603008-2.4665296 5.54069173-3.8117869 5.54069173-1.1012659 0-.3364979-4.09022556-.3364979-4.39097744 0-.54135338.4894514-3.78947368-.8565401-3.78947368-1.3459916 0-2.1107595 4.13533834-2.2331224 4.57142857-.1223628.43609022-1.1318565 4.36090225-1.5601266 4.30075185-.8871308 0 1.4989452-9.924812-1.5295358-9.924812-1.7436709 0-1.3765823 5.08270676-1.6518988 5.08270676-.2753164 0-.1529535-3.72932331-.1529535-4.33082706 0-.60150376-.6424051-.7518797-.6424051-.7518797l-.2447257.15037594s-.6424051 12.03007516.7647679 12.03007516 1.3765823-4.3609022 1.3765823-5.86466163c0-1.5037594-.1835443-5.47368421.7341772-5.38345865.9177215.09022557.3670886 3.18796993.2753164 3.90977444-.0917721.72180451-.7953586 6.46616544 1.0706751 6.46616544 1.8660338 0 3.2426161-6.88721807 3.2426161-6.88721807s-.3059072 6.10526317 1.5295358 6.10526317c1.2780802 0 2.8674515-2.4058346 3.7975929-4.0601504.0082595 1.6383158.3779177 2.8270677 1.4334198 2.8270677 2.2637131 0 3.4567511-3.42857145 3.4567511-4.0601504 0 0 .1529535 1.6842105 1.1012658 1.6842105.9483122 0 1.1930379-.3609022 3.028481-5.14285711.3059072-.72180451 1.3154008-3.66917294 1.9883966-3.66917294s-.2447257 9.89473685 1.3459916 9.89473685c1.1930379.0902256 1.0706751-.5714286 1.0706751-.9924812s-.9177215-.2706767-.9177215-.2706767z" stroke-linecap="round" stroke-linejoin="round"/></g></svg>